# vtk DataFile Version 3.0
Cell-center point cloud
ASCII
DATASET POLYDATA
POINTS 125 float
50 850 10
150 850 10
250 850 10
350 850 10
450 850 10
550 850 10
650 850 10
750 850 10
850 850 10
950 850 10
50 950 10
150 950 10
250 950 10
350 950 10
450 950 10
550 950 10
650 950 10
750 950 10
850 950 10
950 950 10
950 750 30
50 850 30
150 850 30
250 850 30
350 850 30
450 850 30
550 850 30
650 850 30
750 850 30
850 850 30
950 850 30
50 950 30
150 950 30
250 950 30
350 950 30
450 950 30
550 950 30
650 950 30
750 950 30
850 950 30
950 950 30
850 450 50
950 450 50
850 550 50
950 550 50
850 650 50
950 650 50
850 750 50
950 750 50
50 850 50
150 850 50
250 850 50
350 850 50
450 850 50
550 850 50
650 850 50
750 850 50
850 850 50
950 850 50
50 950 50
150 950 50
250 950 50
350 950 50
450 950 50
550 950 50
650 950 50
750 950 50
850 950 50
950 950 50
850 450 70
950 450 70
850 550 70
950 550 70
850 650 70
950 650 70
850 750 70
950 750 70
50 850 70
150 850 70
250 850 70
350 850 70
450 850 70
550 850 70
650 850 70
750 850 70
850 850 70
950 850 70
50 950 70
150 950 70
250 950 70
350 950 70
450 950 70
550 950 70
650 950 70
750 950 70
850 950 70
950 950 70
850 450 90
950 450 90
850 550 90
950 550 90
850 650 90
950 650 90
850 750 90
950 750 90
50 850 90
150 850 90
250 850 90
350 850 90
450 850 90
550 850 90
650 850 90
750 850 90
850 850 90
950 850 90
50 950 90
150 950 90
250 950 90
350 950 90
450 950 90
550 950 90
650 950 90
750 950 90
850 950 90
950 950 90
VERTICES 125 250
1 0
1 1
1 2
1 3
1 4
1 5
1 6
1 7
1 8
1 9
1 10
1 11
1 12
1 13
1 14
1 15
1 16
1 17
1 18
1 19
1 20
1 21
1 22
1 23
1 24
1 25
1 26
1 27
1 28
1 29
1 30
1 31
1 32
1 33
1 34
1 35
1 36
1 37
1 38
1 39
1 40
1 41
1 42
1 43
1 44
1 45
1 46
1 47
1 48
1 49
1 50
1 51
1 52
1 53
1 54
1 55
1 56
1 57
1 58
1 59
1 60
1 61
1 62
1 63
1 64
1 65
1 66
1 67
1 68
1 69
1 70
1 71
1 72
1 73
1 74
1 75
1 76
1 77
1 78
1 79
1 80
1 81
1 82
1 83
1 84
1 85
1 86
1 87
1 88
1 89
1 90
1 91
1 92
1 93
1 94
1 95
1 96
1 97
1 98
1 99
1 100
1 101
1 102
1 103
1 104
1 105
1 106
1 107
1 108
1 109
1 110
1 111
1 112
1 113
1 114
1 115
1 116
1 117
1 118
1 119
1 120
1 121
1 122
1 123
1 124
POINT_DATA 125
SCALARS active_cell_index int 1
LOOKUP_TABLE default
80
81
82
83
84
85
86
87
88
89
90
91
92
93
94
95
96
97
98
99
179
180
181
182
183
184
185
186
187
188
189
190
191
192
193
194
195
196
197
198
199
248
249
258
259
268
269
278
279
280
281
282
283
284
285
286
287
288
289
290
291
292
293
294
295
296
297
298
299
348
349
358
359
368
369
378
379
380
381
382
383
384
385
386
387
388
389
390
391
392
393
394
395
396
397
398
399
448
449
458
459
468
469
478
479
480
481
482
483
484
485
486
487
488
489
490
491
492
493
494
495
496
497
498
499
SCALARS head float 1
LOOKUP_TABLE default
79
77
75
73
71
69
67
65
63
61
79
77
75
73
71
69
67
65
63
61
61
79
77
75
73
71
69
67
65
63
61
79
77
75
73
71
69
67
65
63
61
63
61
63
61
63
61
63
61
79
77
75
73
71
69
67
65
63
61
79
77
75
73
71
69
67
65
63
61
63
61
63
61
63
61
63
61
79
77
75
73
71
69
67
65
63
61
79
77
75
73
71
69
67
65
63
61
63
61
63
61
63
61
63
61
79
77
75
73
71
69
67
65
63
61
79
77
75
73
71
69
67
65
63
61
SCALARS dS float 1
LOOKUP_TABLE default
0
0
0
0
0
0
0
0
0
0
0
0
0
0
0
0
0
0
0
0
0
0
0
0
0
0
0
0
0
0
0
0
0
0
0
0
0
0
0
0
0
0
0
0
0
0
0
0
0
0
0
0
0
0
0
0
0
0
0
0
0
0
0
0
0
0
0
0
0
0
0
0
0
0
0
0
0
0
0
0
0
0
0
0
0
0
0
0
0
0
0
0
0
0
0
0
0
0
0
0
0
0
0
0
0
0
0
0
0
0
0
0
0
0
0
0
0
0
0
0
0
0
0
0
0
SCALARS Qw float 1
LOOKUP_TABLE default
0
0
0
0
0
0
0
0
0
0
0
0
0
0
0
0
0
0
0
0
0
0
0
0
0
0
0
0
0
0
0
0
0
0
0
0
0
0
0
0
0
0
0
0
0
0
0
0
0
0
0
0
0
0
0
0
0
0
0
0
0
0
0
0
0
0
0
0
0
0
0
0
0
0
0
0
0
0
0
0
0
0
0
0
0
0
0
0
0
0
0
0
0
0
0
0
0
0
0
0
0
0
0
0
0
0
0
0
0
0
0
0
0
0
0
0
0
0
0
0
0
0
0
0
0
