# vtk DataFile Version 3.0
Cell-center point cloud
ASCII
DATASET POLYDATA
POINTS 125 float
50 450 10
150 450 10
250 450 10
350 450 10
450 450 10
550 450 10
650 450 10
750 450 10
50 550 10
150 550 10
250 550 10
350 550 10
450 550 10
550 550 10
50 650 10
150 650 10
250 650 10
350 650 10
50 750 10
150 750 10
250 750 10
350 750 10
50 450 30
150 450 30
250 450 30
350 450 30
450 450 30
550 450 30
50 550 30
150 550 30
250 550 30
350 550 30
450 550 30
550 550 30
50 650 30
150 650 30
250 650 30
350 650 30
50 750 30
150 750 30
250 750 30
350 750 30
450 250 50
550 250 50
650 250 50
750 250 50
450 350 50
550 350 50
650 350 50
750 350 50
50 450 50
150 450 50
250 450 50
350 450 50
50 550 50
150 550 50
250 550 50
350 550 50
50 650 50
150 650 50
250 650 50
350 650 50
50 750 50
150 750 50
250 750 50
350 750 50
750 50 70
650 150 70
750 150 70
450 250 70
550 250 70
650 250 70
750 250 70
450 350 70
550 350 70
650 350 70
750 350 70
50 450 70
150 450 70
250 450 70
350 450 70
50 550 70
150 550 70
250 550 70
350 550 70
50 650 70
150 650 70
250 650 70
350 650 70
50 750 70
150 750 70
250 750 70
350 750 70
450 50 90
550 50 90
650 50 90
750 50 90
450 150 90
550 150 90
650 150 90
750 150 90
450 250 90
550 250 90
650 250 90
750 250 90
450 350 90
550 350 90
650 350 90
750 350 90
50 450 90
150 450 90
250 450 90
350 450 90
50 550 90
150 550 90
250 550 90
350 550 90
50 650 90
150 650 90
250 650 90
350 650 90
50 750 90
150 750 90
250 750 90
350 750 90
VERTICES 125 250
1 0
1 1
1 2
1 3
1 4
1 5
1 6
1 7
1 8
1 9
1 10
1 11
1 12
1 13
1 14
1 15
1 16
1 17
1 18
1 19
1 20
1 21
1 22
1 23
1 24
1 25
1 26
1 27
1 28
1 29
1 30
1 31
1 32
1 33
1 34
1 35
1 36
1 37
1 38
1 39
1 40
1 41
1 42
1 43
1 44
1 45
1 46
1 47
1 48
1 49
1 50
1 51
1 52
1 53
1 54
1 55
1 56
1 57
1 58
1 59
1 60
1 61
1 62
1 63
1 64
1 65
1 66
1 67
1 68
1 69
1 70
1 71
1 72
1 73
1 74
1 75
1 76
1 77
1 78
1 79
1 80
1 81
1 82
1 83
1 84
1 85
1 86
1 87
1 88
1 89
1 90
1 91
1 92
1 93
1 94
1 95
1 96
1 97
1 98
1 99
1 100
1 101
1 102
1 103
1 104
1 105
1 106
1 107
1 108
1 109
1 110
1 111
1 112
1 113
1 114
1 115
1 116
1 117
1 118
1 119
1 120
1 121
1 122
1 123
1 124
POINT_DATA 125
SCALARS active_cell_index int 1
LOOKUP_TABLE default
40
41
42
43
44
45
46
47
50
51
52
53
54
55
60
61
62
63
70
71
72
73
140
141
142
143
144
145
150
151
152
153
154
155
160
161
162
163
170
171
172
173
224
225
226
227
234
235
236
237
240
241
242
243
250
251
252
253
260
261
262
263
270
271
272
273
307
316
317
324
325
326
327
334
335
336
337
340
341
342
343
350
351
352
353
360
361
362
363
370
371
372
373
404
405
406
407
414
415
416
417
424
425
426
427
434
435
436
437
440
441
442
443
450
451
452
453
460
461
462
463
470
471
472
473
SCALARS head float 1
LOOKUP_TABLE default
79
77
75
73
71
69
67
65
79
77
75
73
71
69
79
77
75
73
79
77
75
73
79
77
75
73
71
69
79
77
75
73
71
69
79
77
75
73
79
77
75
73
71
69
67
65
71
69
67
65
79
77
75
73
79
77
75
73
79
77
75
73
79
77
75
73
65
67
65
71
69
67
65
71
69
67
65
79
77
75
73
79
77
75
73
79
77
75
73
79
77
75
73
71
69
67
65
71
69
67
65
71
69
67
65
71
69
67
65
79
77
75
73
79
77
75
73
79
77
75
73
79
77
75
73
SCALARS dS float 1
LOOKUP_TABLE default
0
0
0
0
0
0
0
0
0
0
0
0
0
0
0
0
0
0
0
0
0
0
0
0
0
0
0
0
0
0
0
0
0
0
0
0
0
0
0
0
0
0
0
0
0
0
0
0
0
0
0
0
0
0
0
0
0
0
0
0
0
0
0
0
0
0
0
0
0
0
0
0
0
0
0
0
0
0
0
0
0
0
0
0
0
0
0
0
0
0
0
0
0
0
0
0
0
0
0
0
0
0
0
0
0
0
0
0
0
0
0
0
0
0
0
0
0
0
0
0
0
0
0
0
0
SCALARS Qw float 1
LOOKUP_TABLE default
0
0
0
0
0
0
0
0
0
0
0
0
0
0
0
0
0
0
0
0
0
0
0
0
0
0
0
0
0
0
0
0
0
0
0
0
0
0
0
0
0
0
0
0
0
0
0
0
0
0
0
0
0
0
0
0
0
0
0
0
0
0
0
0
0
0
0
0
0
0
0
0
0
0
0
0
0
0
0
0
0
0
0
0
0
0
0
0
0
0
0
0
0
0
0
0
0
0
0
0
0
0
0
0
0
0
0
0
0
0
0
0
0
0
0
0
0
0
0
0
0
0
0
0
0
