# vtk DataFile Version 3.0
Cell-center point cloud
ASCII
DATASET POLYDATA
POINTS 125 float
850 50 10
950 50 10
850 150 10
950 150 10
850 250 10
950 250 10
850 350 10
950 350 10
850 450 10
950 450 10
650 550 10
750 550 10
850 550 10
950 550 10
450 650 10
550 650 10
650 650 10
750 650 10
850 650 10
950 650 10
450 750 10
550 750 10
650 750 10
750 750 10
850 750 10
950 750 10
850 50 30
950 50 30
850 150 30
950 150 30
850 250 30
950 250 30
850 350 30
950 350 30
650 450 30
750 450 30
850 450 30
950 450 30
650 550 30
750 550 30
850 550 30
950 550 30
450 650 30
550 650 30
650 650 30
750 650 30
850 650 30
950 650 30
450 750 30
550 750 30
650 750 30
750 750 30
850 750 30
850 50 50
950 50 50
850 150 50
950 150 50
850 250 50
950 250 50
850 350 50
950 350 50
450 450 50
550 450 50
650 450 50
750 450 50
450 550 50
550 550 50
650 550 50
750 550 50
450 650 50
550 650 50
650 650 50
750 650 50
450 750 50
550 750 50
650 750 50
750 750 50
850 50 70
950 50 70
850 150 70
950 150 70
850 250 70
950 250 70
850 350 70
950 350 70
450 450 70
550 450 70
650 450 70
750 450 70
450 550 70
550 550 70
650 550 70
750 550 70
450 650 70
550 650 70
650 650 70
750 650 70
450 750 70
550 750 70
650 750 70
750 750 70
850 50 90
950 50 90
850 150 90
950 150 90
850 250 90
950 250 90
850 350 90
950 350 90
450 450 90
550 450 90
650 450 90
750 450 90
450 550 90
550 550 90
650 550 90
750 550 90
450 650 90
550 650 90
650 650 90
750 650 90
450 750 90
550 750 90
650 750 90
750 750 90
VERTICES 125 250
1 0
1 1
1 2
1 3
1 4
1 5
1 6
1 7
1 8
1 9
1 10
1 11
1 12
1 13
1 14
1 15
1 16
1 17
1 18
1 19
1 20
1 21
1 22
1 23
1 24
1 25
1 26
1 27
1 28
1 29
1 30
1 31
1 32
1 33
1 34
1 35
1 36
1 37
1 38
1 39
1 40
1 41
1 42
1 43
1 44
1 45
1 46
1 47
1 48
1 49
1 50
1 51
1 52
1 53
1 54
1 55
1 56
1 57
1 58
1 59
1 60
1 61
1 62
1 63
1 64
1 65
1 66
1 67
1 68
1 69
1 70
1 71
1 72
1 73
1 74
1 75
1 76
1 77
1 78
1 79
1 80
1 81
1 82
1 83
1 84
1 85
1 86
1 87
1 88
1 89
1 90
1 91
1 92
1 93
1 94
1 95
1 96
1 97
1 98
1 99
1 100
1 101
1 102
1 103
1 104
1 105
1 106
1 107
1 108
1 109
1 110
1 111
1 112
1 113
1 114
1 115
1 116
1 117
1 118
1 119
1 120
1 121
1 122
1 123
1 124
POINT_DATA 125
SCALARS active_cell_index int 1
LOOKUP_TABLE default
8
9
18
19
28
29
38
39
48
49
56
57
58
59
64
65
66
67
68
69
74
75
76
77
78
79
108
109
118
119
128
129
138
139
146
147
148
149
156
157
158
159
164
165
166
167
168
169
174
175
176
177
178
208
209
218
219
228
229
238
239
244
245
246
247
254
255
256
257
264
265
266
267
274
275
276
277
308
309
318
319
328
329
338
339
344
345
346
347
354
355
356
357
364
365
366
367
374
375
376
377
408
409
418
419
428
429
438
439
444
445
446
447
454
455
456
457
464
465
466
467
474
475
476
477
SCALARS head float 1
LOOKUP_TABLE default
63.8271
61.2987
63.8271
61.2987
63.8271
61.2987
63.8271
61.2987
63.8271
61.2987
68.4327
66.2062
63.8271
61.2987
72.4832
70.521
68.4327
66.2062
63.8271
61.2987
72.4832
70.521
68.4327
66.2062
63.8271
61.2987
63.8337
61.302
63.8337
61.302
63.8337
61.302
63.8337
61.302
68.4382
66.2123
63.8337
61.302
68.4382
66.2123
63.8337
61.302
72.4879
70.526
68.4382
66.2123
63.8337
61.302
72.4879
70.526
68.4382
66.2123
63.8337
63.8472
61.3089
63.8472
61.3089
63.8472
61.3089
63.8472
61.3089
72.4971
70.5361
68.4492
66.2246
72.4971
70.5361
68.4492
66.2246
72.4971
70.5361
68.4492
66.2246
72.4971
70.5361
68.4492
66.2246
63.8994
61.3631
63.8994
61.3631
63.8994
61.3631
63.8994
61.3631
72.5133
70.5553
68.4732
66.2572
72.5133
70.5553
68.4732
66.2572
72.5133
70.5553
68.4732
66.2572
72.5133
70.5553
68.4732
66.2572
63.9316
61.4011
63.9316
61.4011
63.9316
61.4011
63.9316
61.4011
72.5205
70.5644
68.4854
66.2751
72.5205
70.5644
68.4854
66.2751
72.5205
70.5644
68.4854
66.2751
72.5205
70.5644
68.4854
66.2751
SCALARS dS float 1
LOOKUP_TABLE default
0
0
0
0
0
0
0
0
0
0
0
0
0
0
0
0
0
0
0
0
0
0
0
0
0
0
0
0
0
0
0
0
0
0
0
0
0
0
0
0
0
0
0
0
0
0
0
0
0
0
0
0
0
0
0
0
0
0
0
0
0
0
0
0
0
0
0
0
0
0
0
0
0
0
0
0
0
0
0
0
0
0
0
0
0
0
0
0
0
0
0
0
0
0
0
0
0
0
0
0
0
0
0
0
0
0
0
0
0
0
0
0
0
0
0
0
0
0
0
0
0
0
0
0
0
SCALARS Qw float 1
LOOKUP_TABLE default
0
0
0
0
0
0
0
0
0
0
0
0
0
0
0
0
0
0
0
0
0
0
0
0
0
0
0
0
0
0
0
0
0
0
0
0
0
0
0
0
0
0
0
0
0
0
0
0
0
0
0
0
0
0
0
0
0
0
0
0
0
0
0
0
0
0
0
0
0
0
0
0
0
0
0
0
0
0
0
0
0
0
0
0
0
0
0
0
0
0
0
0
0
0
0
0
0
0
0
0
0
0
0
0
0
0
0
0
0
0
0
0
0
0
0
0
0
0
0
0
0
0
0
0
0
