# vtk DataFile Version 3.0
Cell-center point cloud
ASCII
DATASET POLYDATA
POINTS 125 float
50 50 10
150 50 10
250 50 10
350 50 10
450 50 10
550 50 10
650 50 10
750 50 10
50 150 10
150 150 10
250 150 10
350 150 10
450 150 10
550 150 10
650 150 10
750 150 10
50 250 10
150 250 10
250 250 10
350 250 10
450 250 10
550 250 10
650 250 10
750 250 10
50 350 10
150 350 10
250 350 10
350 350 10
450 350 10
550 350 10
650 350 10
750 350 10
50 50 30
150 50 30
250 50 30
350 50 30
450 50 30
550 50 30
650 50 30
750 50 30
50 150 30
150 150 30
250 150 30
350 150 30
450 150 30
550 150 30
650 150 30
750 150 30
50 250 30
150 250 30
250 250 30
350 250 30
450 250 30
550 250 30
650 250 30
750 250 30
50 350 30
150 350 30
250 350 30
350 350 30
450 350 30
550 350 30
650 350 30
750 350 30
50 50 50
150 50 50
250 50 50
350 50 50
450 50 50
550 50 50
650 50 50
750 50 50
50 150 50
150 150 50
250 150 50
350 150 50
450 150 50
550 150 50
650 150 50
750 150 50
50 250 50
150 250 50
250 250 50
350 250 50
50 350 50
150 350 50
250 350 50
350 350 50
50 50 70
150 50 70
250 50 70
350 50 70
450 50 70
550 50 70
650 50 70
50 150 70
150 150 70
250 150 70
350 150 70
450 150 70
550 150 70
50 250 70
150 250 70
250 250 70
350 250 70
50 350 70
150 350 70
250 350 70
350 350 70
50 50 90
150 50 90
250 50 90
350 50 90
50 150 90
150 150 90
250 150 90
350 150 90
50 250 90
150 250 90
250 250 90
350 250 90
50 350 90
150 350 90
250 350 90
350 350 90
VERTICES 125 250
1 0
1 1
1 2
1 3
1 4
1 5
1 6
1 7
1 8
1 9
1 10
1 11
1 12
1 13
1 14
1 15
1 16
1 17
1 18
1 19
1 20
1 21
1 22
1 23
1 24
1 25
1 26
1 27
1 28
1 29
1 30
1 31
1 32
1 33
1 34
1 35
1 36
1 37
1 38
1 39
1 40
1 41
1 42
1 43
1 44
1 45
1 46
1 47
1 48
1 49
1 50
1 51
1 52
1 53
1 54
1 55
1 56
1 57
1 58
1 59
1 60
1 61
1 62
1 63
1 64
1 65
1 66
1 67
1 68
1 69
1 70
1 71
1 72
1 73
1 74
1 75
1 76
1 77
1 78
1 79
1 80
1 81
1 82
1 83
1 84
1 85
1 86
1 87
1 88
1 89
1 90
1 91
1 92
1 93
1 94
1 95
1 96
1 97
1 98
1 99
1 100
1 101
1 102
1 103
1 104
1 105
1 106
1 107
1 108
1 109
1 110
1 111
1 112
1 113
1 114
1 115
1 116
1 117
1 118
1 119
1 120
1 121
1 122
1 123
1 124
POINT_DATA 125
SCALARS active_cell_index int 1
LOOKUP_TABLE default
0
1
2
3
4
5
6
7
10
11
12
13
14
15
16
17
20
21
22
23
24
25
26
27
30
31
32
33
34
35
36
37
100
101
102
103
104
105
106
107
110
111
112
113
114
115
116
117
120
121
122
123
124
125
126
127
130
131
132
133
134
135
136
137
200
201
202
203
204
205
206
207
210
211
212
213
214
215
216
217
220
221
222
223
230
231
232
233
300
301
302
303
304
305
306
310
311
312
313
314
315
320
321
322
323
330
331
332
333
400
401
402
403
410
411
412
413
420
421
422
423
430
431
432
433
SCALARS head float 1
LOOKUP_TABLE default
79.2502
77.7046
76.0675
74.3293
72.4832
70.521
68.4327
66.2062
79.2502
77.7046
76.0675
74.3293
72.4832
70.521
68.4327
66.2062
79.2502
77.7046
76.0675
74.3293
72.4832
70.521
68.4327
66.2062
79.2502
77.7046
76.0675
74.3293
72.4832
70.521
68.4327
66.2062
79.2527
77.7085
76.0715
74.3336
72.4879
70.526
68.4382
66.2123
79.2527
77.7085
76.0715
74.3336
72.4879
70.526
68.4382
66.2123
79.2527
77.7085
76.0715
74.3336
72.4879
70.526
68.4382
66.2123
79.2527
77.7085
76.0715
74.3336
72.4879
70.526
68.4382
66.2123
79.2578
77.7163
76.0795
74.3422
72.4971
70.5361
68.4492
66.2246
79.2578
77.7163
76.0795
74.3422
72.4971
70.5361
68.4492
66.2246
79.2578
77.7163
76.0795
74.3422
79.2578
77.7163
76.0795
74.3422
79.266
77.7277
76.0918
74.3561
72.5133
70.5553
68.4732
79.266
77.7277
76.0918
74.3561
72.5133
70.5553
79.266
77.7277
76.0918
74.3561
79.266
77.7277
76.0918
74.3561
79.2691
77.7323
76.0969
74.3622
79.2691
77.7323
76.0969
74.3622
79.2691
77.7323
76.0969
74.3622
79.2691
77.7323
76.0969
74.3622
SCALARS dS float 1
LOOKUP_TABLE default
0
0
0
0
0
0
0
0
0
0
0
0
0
0
0
0
0
0
0
0
0
0
0
0
0
0
0
0
0
0
0
0
0
0
0
0
0
0
0
0
0
0
0
0
0
0
0
0
0
0
0
0
0
0
0
0
0
0
0
0
0
0
0
0
0
0
0
0
0
0
0
0
0
0
0
0
0
0
0
0
0
0
0
0
0
0
0
0
0
0
0
0
0
0
0
0
0
0
0
0
0
0
0
0
0
0
0
0
0
0
0
0
0
0
0
0
0
0
0
0
0
0
0
0
0
SCALARS Qw float 1
LOOKUP_TABLE default
0
0
0
0
0
0
0
0
0
0
0
0
0
0
0
0
0
0
0
0
0
0
0
0
0
0
0
0
0
0
0
0
0
0
0
0
0
0
0
0
0
0
0
0
0
0
0
0
0
0
0
0
0
0
0
0
0
0
0
0
0
0
0
0
0
0
0
0
0
0
0
0
0
0
0
0
0
0
0
0
0
0
0
0
0
0
0
0
0
0
0
0
0
0
0
0
0
0
0
0
0
0
0
0
0
0
0
0
0
0
0
0
0
0
0
0
0
0
0
0
0
0
0
0
0
